<svg width="1210" height="1136" viewBox="0 0 1210 1136" fill="none" xmlns="http://www.w3.org/2000/svg">
<ellipse cx="705" cy="630.5" rx="505" ry="505.5" fill="#E2E2E2"/>
<circle cx="505" cy="505" r="505" fill="white"/>
<ellipse cx="605" cy="568.5" rx="505" ry="505.5" fill="#BBBBBB"/>
<g filter="url(#filter0_di)">
<path d="M621.204 358.5C648.954 358.5 673.744 361.645 695.574 367.935C717.774 373.855 736.459 382.735 751.629 394.575C766.799 406.045 778.454 420.29 786.594 437.31C794.734 453.96 798.804 473.015 798.804 494.475C798.804 524.075 791.404 549.05 776.604 569.4C761.804 589.75 740.529 605.29 712.779 616.02L804.354 747H712.779L631.194 630.45H501.879V747H421.404V358.5H621.204ZM501.879 400.125V588.825H621.204C650.434 588.825 673.004 581.24 688.914 566.07C704.824 550.53 712.779 526.665 712.779 494.475C712.779 462.285 704.824 438.605 688.914 423.435C673.004 407.895 650.434 400.125 621.204 400.125H501.879Z" fill="#03070C"/>
</g>
<defs>
<filter id="filter0_di" x="421.404" y="358.5" width="411.95" height="417.5" filterUnits="userSpaceOnUse" color-interpolation-filters="sRGB">
<feFlood flood-opacity="0" result="BackgroundImageFix"/>
<feColorMatrix in="SourceAlpha" type="matrix" values="0 0 0 0 0 0 0 0 0 0 0 0 0 0 0 0 0 0 127 0"/>
<feOffset dx="25" dy="25"/>
<feGaussianBlur stdDeviation="2"/>
<feColorMatrix type="matrix" values="0 0 0 0 1 0 0 0 0 1 0 0 0 0 1 0 0 0 1 0"/>
<feBlend mode="normal" in2="BackgroundImageFix" result="effect1_dropShadow"/>
<feBlend mode="normal" in="SourceGraphic" in2="effect1_dropShadow" result="shape"/>
<feColorMatrix in="SourceAlpha" type="matrix" values="0 0 0 0 0 0 0 0 0 0 0 0 0 0 0 0 0 0 127 0" result="hardAlpha"/>
<feOffset dx="25" dy="25"/>
<feGaussianBlur stdDeviation="2"/>
<feComposite in2="hardAlpha" operator="arithmetic" k2="-1" k3="1"/>
<feColorMatrix type="matrix" values="0 0 0 0 0.886275 0 0 0 0 0.886275 0 0 0 0 0.886275 0 0 0 0.25 0"/>
<feBlend mode="normal" in2="shape" result="effect2_innerShadow"/>
</filter>
</defs>
</svg>
